PathFileType	4	(X/Y/Z)	C:\Users\86182\Documents\cortex\Trimmed_M1_L7.trc
DataRate	CameraRate	NumFrames	NumMarkers	Units	OrigDataRate	OrigDataStartFrame	OrigNumFrames
100.00	100.00	       154	2	mm	100.00	361	       901
Frame#	Time	gripper			box			
		X1	Y1	Z1	X2	Y2	Z2	

361	3.600	198.48515	195.11459	293.19635	200.15411	194.37828	155.98207	
362	3.610	198.50226	195.11580	293.18936	200.23643	194.37392	155.95830	
363	3.620	198.54828	195.09805	293.17395	200.24765	194.37241	155.95811	
364	3.630	198.54509	195.10005	293.17505	200.27554	194.39647	155.93517	
365	3.640	198.55942	195.08893	293.16608	200.26982	194.38843	155.94000	
366	3.650	198.52681	195.10165	293.16296	200.26018	194.37486	155.94814	
367	3.660	198.48505	195.12436	293.17096	200.28319	194.40723	155.92873	
368	3.670	198.47878	195.12991	293.17618	200.27623	194.39867	155.93221	
369	3.680	198.49321	195.12590	293.18057	200.32298	194.45639	155.90845	
370	3.690	198.53229	195.10805	293.17947	200.29654	194.41737	155.93431	
371	3.700	198.57983	195.07834	293.16315	200.38393	194.41151	155.94844	
372	3.710	198.56412	195.08817	293.16855	200.27554	194.39647	155.93517	
373	3.720	198.55579	195.07655	293.13992	200.24603	194.36348	155.94341	
374	3.730	198.59454	195.04356	293.11023	200.21663	194.24582	155.94257	
375	3.740	198.56937	195.02525	293.11038	200.26653	194.22183	155.90189	
376	3.750	198.49060	195.00334	293.10101	200.22867	194.01321	155.80684	
377	3.760	198.53564	195.01155	293.07443	200.21266	194.00407	155.79419	
378	3.770	198.51587	195.01730	293.05692	200.18307	193.98718	155.77083	
379	3.780	198.48956	195.02087	293.04987	200.18307	193.98718	155.77083	
380	3.790	198.51671	195.01585	293.06284	200.18307	193.98718	155.77083	
381	3.800	198.53012	195.01338	293.06931	200.18895	193.99052	155.77548	
382	3.810	198.49910	195.00627	293.09390	200.22867	194.01321	155.80684	
383	3.820	198.53520	195.02603	293.08408	200.23685	194.02441	155.80051	
384	3.830	198.55737	194.98904	293.10193	200.22610	194.01556	155.80898	
385	3.840	198.64583	194.97105	293.09381	200.22867	194.01321	155.80684	
386	3.850	198.67853	194.97740	293.07709	200.22867	194.01321	155.80684	
387	3.860	198.70757	194.96597	293.07581	200.22867	194.01321	155.80684	
388	3.870	198.74689	194.95938	293.06863	200.22867	194.01321	155.80684	
389	3.880	198.74339	194.95781	293.07056	200.22867	194.01321	155.80684	
390	3.890	198.70006	194.96851	293.06647	200.20670	194.00066	155.78951	
391	3.900	198.60638	194.99333	293.07492	200.19679	193.99500	155.78169	
392	3.910	198.67487	194.98367	293.05838	200.20274	193.99841	155.78638	
393	3.920	198.66763	194.98300	293.06677	200.22867	194.01321	155.80684	
394	3.930	198.62073	194.98213	293.08569	200.22867	194.01321	155.80684	
395	3.940	198.66293	194.96440	293.09149	200.22867	194.01321	155.80684	
396	3.950	198.71422	194.94476	293.08926	200.22867	194.01321	155.80684	
397	3.960	198.72498	194.94470	293.08621	200.22867	194.01321	155.80684	
398	3.970	198.76480	194.94666	293.07132	200.22867	194.01321	155.80684	
399	3.980	198.69316	194.95653	293.08575	200.22867	194.01321	155.80684	
400	3.990	198.67223	194.95406	293.09180	200.22867	194.01321	155.80684	
401	4.000	198.67513	194.96658	293.08170	200.21663	194.00633	155.79736	
402	4.010	198.58830	194.99902	293.07458	200.20274	193.99841	155.78638	
403	4.020	198.61005	194.98412	293.08060	200.21663	194.00633	155.79736	
404	4.030	198.62805	194.97766	293.08337	200.22867	194.01321	155.80684	
405	4.040	198.72186	194.96590	293.07178	200.22867	194.01321	155.80684	
406	4.050	198.72914	194.95789	293.07458	200.22867	194.01321	155.80684	
407	4.060	198.77191	194.94662	293.06931	200.22867	194.01321	155.80684	
408	4.070	198.75488	194.94527	293.07654	200.22867	194.01321	155.80684	
409	4.080	198.70679	194.94261	293.09500	200.22867	194.01321	155.80684	
410	4.090	198.74333	194.94678	293.07739	200.22867	194.01321	155.80684	
411	4.100	198.73616	194.94682	293.07941	200.22867	194.01321	155.80684	
412	4.110	198.74336	194.95271	293.07272	200.22867	194.01321	155.80684	
413	4.120	198.69316	194.96568	293.07910	200.22867	194.01321	155.80684	
414	4.130	198.68234	194.96814	293.07867	200.22867	194.01321	155.80684	
415	4.140	198.71831	194.95164	293.08157	200.22867	194.01321	155.80684	
416	4.150	198.66779	194.96187	293.08670	200.22266	194.00978	155.80208	
417	4.160	198.65799	194.96085	293.09271	200.22867	194.01321	155.80684	
418	4.170	198.65102	194.96915	293.09045	200.22867	194.01321	155.80684	
419	4.180	198.66872	194.95250	293.09790	200.22867	194.01321	155.80684	
420	4.190	198.67116	194.95285	293.09659	200.22867	194.01321	155.80684	
421	4.200	198.67586	194.94933	293.09784	200.22867	194.01321	155.80684	
422	4.210	198.66887	194.95677	293.09409	200.22867	194.01321	155.80684	
423	4.220	198.67873	194.95979	293.08786	200.22867	194.01321	155.80684	
424	4.230	198.66417	194.96034	293.09286	200.22867	194.01321	155.80684	
425	4.240	198.70753	194.95329	293.08362	200.22867	194.01321	155.80684	
426	4.250	198.64975	194.96915	293.08539	200.22867	194.01321	155.80684	
427	4.260	198.72534	194.95523	293.07434	200.22867	194.01321	155.80684	
428	4.270	198.68221	194.96382	293.07840	200.22867	194.01321	155.80684	
429	4.280	198.71466	194.95882	293.07620	200.22867	194.01321	155.80684	
430	4.290	198.70404	194.96123	293.07977	200.22867	194.01321	155.80684	
431	4.300	198.67703	194.95100	293.09796	200.22867	194.01321	155.80684	
432	4.310	198.70403	194.95647	293.08267	200.22867	194.01321	155.80684	
433	4.320	198.60228	194.98248	293.09506	200.22867	194.01321	155.80684	
434	4.330	198.56229	194.99321	293.09402	200.22867	194.01321	155.80684	
435	4.340	198.58521	194.98085	293.10568	200.22867	194.01321	155.80684	
436	4.350	198.55972	195.00343	293.07513	200.22867	194.01321	155.80684	
437	4.360	198.52536	195.00328	293.09027	200.22867	194.01321	155.80684	
438	4.370	198.53156	195.00587	293.08438	200.21466	194.00522	155.79576	
439	4.380	198.52826	195.01048	293.07837	200.22867	194.01321	155.80684	
440	4.390	198.55797	194.99422	293.08838	200.22867	194.01321	155.80684	
441	4.400	198.59891	194.99983	293.07303	200.22867	194.01321	155.80684	
442	4.410	198.56133	194.99821	293.08670	200.22867	194.01321	155.80684	
443	4.420	198.60112	194.98961	293.08746	200.22867	194.01321	155.80684	
444	4.430	198.59210	194.99338	293.07526	200.22867	194.01321	155.80684	
445	4.440	198.63840	194.99370	293.07050	200.22867	194.01321	155.80684	
446	4.450	198.59196	195.00810	293.06299	200.22867	194.01321	155.80684	
447	4.460	198.59898	195.00336	293.06784	200.22867	194.01321	155.80684	
448	4.470	198.57419	195.01169	293.06293	200.22867	194.01321	155.80684	
449	4.480	198.58495	195.01163	293.05991	200.22867	194.01321	155.80684	
450	4.490	198.59924	195.01155	293.05585	200.22867	194.01321	155.80684	
451	4.500	198.62047	195.01143	293.04987	200.22867	194.01321	155.80684	
452	4.510	198.58829	195.00578	293.06744	200.22867	194.01321	155.80684	
453	4.520	198.61717	195.00237	293.06131	200.22867	194.01321	155.80684	
454	4.530	198.57060	195.01172	293.06393	200.22867	194.01321	155.80684	
455	4.540	198.58475	195.00697	293.06674	200.22867	194.01321	155.80684	
456	4.550	198.56340	195.01175	293.06598	200.22867	194.01321	155.80684	
457	4.560	198.54031	195.01006	293.07556	200.22867	194.01321	155.80684	
458	4.570	198.54535	195.01186	293.07108	200.22867	194.01321	155.80684	
459	4.580	198.53810	195.01190	293.07312	200.22867	194.01321	155.80684	
460	4.590	198.53548	195.01239	293.07187	200.22066	194.00864	155.80051	
461	4.600	198.53810	195.01190	293.07312	200.22867	194.01321	155.80684	
462	4.610	198.55261	195.01183	293.06903	200.22266	194.00978	155.80208	
463	4.620	198.54172	195.01189	293.07211	200.22867	194.01321	155.80684	
464	4.630	198.56340	195.01175	293.06598	200.22867	194.01321	155.80684	
465	4.640	198.59554	195.00807	293.06201	200.22867	194.01321	155.80684	
466	4.650	198.61688	195.00092	293.06622	200.22867	194.01321	155.80684	
467	4.660	198.62047	195.01143	293.04987	200.22867	194.01321	155.80684	
468	4.670	198.62399	195.01024	293.05054	200.22867	194.01321	155.80684	
469	4.680	198.59212	195.01160	293.05786	200.22867	194.01321	155.80684	
470	4.690	198.57060	195.01172	293.06393	200.22867	194.01321	155.80684	
471	4.700	198.54172	195.01189	293.07211	200.22867	194.01321	155.80684	
472	4.710	198.55983	195.01178	293.06699	200.22867	194.01321	155.80684	
473	4.720	198.53810	195.01190	293.07312	200.22867	194.01321	155.80684	
474	4.730	198.55983	195.01178	293.06699	200.22867	194.01321	155.80684	
475	4.740	198.54172	195.01189	293.07211	200.22867	194.01321	155.80684	
476	4.750	198.53564	195.01155	293.07443	200.22867	194.01321	155.80684	
477	4.760	198.53564	195.01155	293.07443	200.22867	194.01321	155.80684	
478	4.770	198.53423	195.00972	293.07791	200.22867	194.01321	155.80684	
479	4.780	198.53810	195.01190	293.07312	200.22867	194.01321	155.80684	
480	4.790	198.53810	195.01190	293.07312	200.22867	194.01321	155.80684	
481	4.800	198.57394	195.00943	293.06650	200.22867	194.01321	155.80684	
482	4.810	198.52826	195.01048	293.07837	200.22466	194.01093	155.80367	
483	4.820	198.53810	195.01190	293.07312	200.22466	194.01093	155.80367	
484	4.830	198.53810	195.01190	293.07312	200.22867	194.01321	155.80684	
485	4.840	198.57410	195.00937	293.06638	200.22867	194.01321	155.80684	
486	4.850	198.60988	195.01031	293.05453	200.22867	194.01321	155.80684	
487	4.860	198.61691	195.01144	293.05087	200.22867	194.01321	155.80684	
488	4.870	198.61691	195.01144	293.05087	200.22867	194.01321	155.80684	
489	4.880	198.62402	195.00674	293.05566	200.22867	194.01321	155.80684	
490	4.890	198.57419	195.01169	293.06293	200.22867	194.01321	155.80684	
491	4.900	198.59908	195.00688	293.06271	200.22867	194.01321	155.80684	
492	4.910	198.55621	195.01180	293.06802	200.22867	194.01321	155.80684	
493	4.920	198.58833	195.00696	293.06573	200.22867	194.01321	155.80684	
494	4.930	198.54535	195.01186	293.07108	200.22867	194.01321	155.80684	
495	4.940	198.54887	195.01067	293.07178	200.22867	194.01321	155.80684	
496	4.950	198.57123	195.00200	293.07800	200.22867	194.01321	155.80684	
497	4.960	198.55931	195.00478	293.07733	200.22867	194.01321	155.80684	
498	4.970	198.53189	195.01047	293.07733	200.22867	194.01321	155.80684	
499	4.980	198.53156	195.00587	293.08438	200.22867	194.01321	155.80684	
500	4.990	198.53810	195.01190	293.07312	200.22867	194.01321	155.80684	
501	5.000	198.56311	195.00710	293.07288	200.22867	194.01321	155.80684	
502	5.010	198.53810	195.01190	293.07312	200.22867	194.01321	155.80684	
503	5.020	198.58482	195.00931	293.06335	200.22867	194.01321	155.80684	
504	5.030	198.61330	195.00212	293.06552	200.22867	194.01321	155.80684	
505	5.040	198.57419	195.01169	293.06293	200.22867	194.01321	155.80684	
506	5.050	198.59550	195.00691	293.06369	200.22867	194.01321	155.80684	
507	5.060	198.59544	195.00574	293.06543	200.22867	194.01321	155.80684	
508	5.070	198.57776	195.01167	293.06192	200.22867	194.01321	155.80684	
509	5.080	198.62399	195.00441	293.05905	200.22867	194.01321	155.80684	
510	5.090	198.62047	195.01143	293.04987	200.22867	194.01321	155.80684	
511	5.100	198.64639	195.00038	293.05850	200.22867	194.01321	155.80684	
512	5.110	198.57947	195.00047	293.07813	200.22867	194.01321	155.80684	
513	5.120	198.55800	195.00412	293.07907	200.22867	194.01321	155.80684	
514	5.130	198.54027	195.00883	293.07715	200.22867	194.01321	155.80684	
